<?xml version="1.0"?>
<!DOCTYPE svg PUBLIC "-//W3C//DTD SVG 1.1//EN" "http://www.w3.org/Graphics/SVG/1.1/DTD/svg11.dtd">
<svg version="1.1" xmlns="http://www.w3.org/2000/svg" xmlns:xlink="http://www.w3.org/1999/xlink" width="600px" height="600px" viewBox="0 0 4 4" preserveAspectRatio="xMidYMid">
    <defs>
        <g id="polygon" fill="white" stroke-width="0.01" stroke="black">
            <polygon points="-0.951057,-0.309017 -0.809017,-0.587785 -0.587785,-0.809017 -0.309017,-0.951057 0,-1 0.309017,-0.951057 0.587785,-0.809017 0.809017,-0.587785 0.951057,-0.309017 1,0 0.951057,0.309017 0.809017,0.587785 0.587785,0.809017 0.309017,0.951057 0,1 -0.309017,0.951057 -0.587785,0.809017 -0.809017,0.587785 -0.951057,0.309017"
                     stroke="black" fill="none"/>
            <line x1="0" y1="0" x2="-0.951057" y2="-0.309017" stroke="black" />
            <line x1="0" y1="0" x2="-0.809017" y2="-0.587785" stroke="black" />
            <line x1="0" y1="0" x2="-0.587785" y2="-0.809017" stroke="black" />
            <line x1="0" y1="0" x2="-0.309017" y2="-0.951057" stroke="black" />
            <line x1="0" y1="0" x2="0" y2="-1" stroke="black" />
            <line x1="0" y1="0" x2="0.309017" y2="-0.951057" stroke="black" />
            <line x1="0" y1="0" x2="0.587785" y2="-0.809017" stroke="black" />
            <line x1="0" y1="0" x2="0.809017" y2="-0.587785" stroke="black" />
            <line x1="0" y1="0" x2="0.951057" y2="-0.309017" stroke="black" />
            <line x1="0" y1="0" x2="1" y2="0" stroke="black" />
            <line x1="0" y1="0" x2="0.951057" y2="0.309017" stroke="black" />
            <line x1="0" y1="0" x2="0.809017" y2="0.587785" stroke="black" />
            <line x1="0" y1="0" x2="0.587785" y2="0.809017" stroke="black" />
            <line x1="0" y1="0" x2="0.309017" y2="0.951057" stroke="black" />
            <line x1="0" y1="0" x2="0" y2="1" stroke="black" />
            <line x1="0" y1="0" x2="-0.309017" y2="0.951057" stroke="black" />
            <line x1="0" y1="0" x2="-0.587785" y2="0.809017" stroke="black" />
            <line x1="0" y1="0" x2="-0.809017" y2="0.587785" stroke="black" />
            <line x1="0" y1="0" x2="-0.951057" y2="0.309017" stroke="black" />
            <animateTransform attributeName="transform" type="rotate" from="0 0 0" to="360 0 0" dur="10s" repeatCount="indefinite" />
        </g>
        <g id="bazaTrojkat">
            <polygon points="2,3 2.3,0.55 2.75,3" />
        </g>
        
        <g id="swing" stroke-width="0.25" stroke="red">
            <line x1="0.90" y1="0.95" x2="5.60" y2="1.95" />
        </g>
    </defs>
   <use xlink:href="#polygon" transform="scale(0.35,0.35) translate(9.5,5.5)" />
    <use xlink:href="#polygon" transform="scale(0.35,0.35) translate(5,4.4)" />
    <use xlink:href="#swing" transform="scale(0.35,0.35) translate(4,3.5)" />
    <use xlink:href="#bazaTrojkat" fill="blue" transform="scale(0.35,0.35) translate(4.8,4.4)" />

    <use xlink:href="#polygon" transform="scale(0.3,0.3) translate(1.5,1.5)" />
    <use xlink:href="#polygon" transform="scale(0.3,0.3) translate(6,2.5)" />
    <use xlink:href="#swing" transform="scale(0.3,0.3) translate(0.5,0.5)" />
    <use xlink:href="#bazaTrojkat" fill="purple" transform="scale(0.3,0.3) translate(1.3,1.4)" />

    <use xlink:href="#polygon" transform="scale(0.2,0.2) translate(13.5,1.5)" />
    <use xlink:href="#polygon" transform="scale(0.2,0.2) translate(18,2.5)" />
    <use xlink:href="#swing" transform="scale(0.2,0.2) translate(12.5,0.5)" />
    <use xlink:href="#bazaTrojkat" fill="green" transform="scale(0.2,0.2) translate(13.3,1.4)" />
</svg>